<?xml version="1.0" encoding="UTF-8" standalone="no"?> <svg xmlns="http://www.w3.org/2000/svg" xmlns:xlink="http://www.w3.org/1999/xlink" viewBox="0 0 64 64"><defs><style>.cls-1{fill:url(#linear-gradient);}.cls-2{fill:url(#linear-gradient-2);}</style><linearGradient id="linear-gradient" x1="10.5" y1="32" x2="53.5" y2="32" gradientUnits="userSpaceOnUse"><stop offset="0" stop-color="#19dd33"/><stop offset="0.43" stop-color="#0fa922"/><stop offset="0.8" stop-color="#088215"/><stop offset="1" stop-color="#057310"/></linearGradient><linearGradient id="linear-gradient-2" x1="26.63" y1="24.12" x2="53.12" y2="24.12" xlink:href="#linear-gradient"/></defs><g id="Layer_78" data-name="Layer 78"><path class="cls-1" d="M52,25.46A1.5,1.5,0,0,0,50.5,27V50a.5.5,0,0,1-.5.5H14a.5.5,0,0,1-.5-.5V14a.5.5,0,0,1,.5-.5H37a1.5,1.5,0,0,0,0-3H14A3.5,3.5,0,0,0,10.5,14V50A3.5,3.5,0,0,0,14,53.5H50A3.5,3.5,0,0,0,53.5,50V27A1.5,1.5,0,0,0,52,25.46Z"/><path class="cls-2" d="M30.16,26.05l-3.43,9.3a1.5,1.5,0,0,0,.34,1.58,1.52,1.52,0,0,0,1.58.34L38,33.84a1.62,1.62,0,0,0,.54-.35L52,19.94a3.38,3.38,0,0,0,.18-4.77l-3.39-3.39a3.4,3.4,0,0,0-4.77.18L30.51,25.51A1.57,1.57,0,0,0,30.16,26.05Zm2.7,1.35L46.18,14.08a.61.61,0,0,1,.41-.2c.06,0,.11,0,.12,0l3.39,3.39s0,.3-.18.53L36.6,31.14l-5.93,2.19Z"/></g></svg>