<?xml version="1.0" encoding="UTF-8" standalone="no"?> <svg width="64" height="64" viewBox="0 0 64 64" fill="none" xmlns="http://www.w3.org/2000/svg">
<path d="M56.3399 10H40.1399V8.91C40.1373 7.74121 39.6718 6.62104 38.8453 5.79458C38.0189 4.96811 36.8987 4.50264 35.7299 4.5H28.2699C27.1011 4.50264 25.981 4.96811 25.1545 5.79458C24.328 6.62104 23.8626 7.74121 23.8599 8.91V10H7.65991C7.26209 10 6.88056 10.158 6.59925 10.4393C6.31795 10.7206 6.15991 11.1022 6.15991 11.5C6.15991 11.8978 6.31795 12.2794 6.59925 12.5607C6.88056 12.842 7.26209 13 7.65991 13H12.6599V51.5C12.6599 53.6217 13.5028 55.6566 15.0031 57.1569C16.5033 58.6571 18.5382 59.5 20.6599 59.5H43.3799C45.5016 59.5 47.5365 58.6571 49.0368 57.1569C50.5371 55.6566 51.3799 53.6217 51.3799 51.5V41.7C52.5167 41.4412 53.5568 40.8656 54.3799 40.04V40.04C55.5481 38.8717 56.2044 37.2872 56.2044 35.635C56.2044 33.9828 55.5481 32.3983 54.3799 31.23C53.5568 30.4044 52.5167 29.8288 51.3799 29.57V13H56.3799C56.7777 13 57.1593 12.842 57.4406 12.5607C57.7219 12.2794 57.8799 11.8978 57.8799 11.5C57.8799 11.1022 57.7219 10.7206 57.4406 10.4393C57.1593 10.158 56.7777 10 56.3799 10H56.3399ZM26.8599 8.91C26.8599 8.53604 27.0085 8.17741 27.2729 7.91298C27.5373 7.64855 27.896 7.5 28.2699 7.5H35.7299C36.1039 7.5 36.4625 7.64855 36.7269 7.91298C36.9914 8.17741 37.1399 8.53604 37.1399 8.91V10H26.8599V8.91ZM52.2799 37.91C51.8281 38.3614 51.2525 38.6688 50.6261 38.7932C49.9996 38.9175 49.3503 38.8534 48.7603 38.6088C48.1702 38.3643 47.6659 37.9503 47.3111 37.4192C46.9564 36.8881 46.767 36.2637 46.767 35.625C46.767 34.9863 46.9564 34.3619 47.3111 33.8308C47.6659 33.2997 48.1702 32.8857 48.7603 32.6412C49.3503 32.3966 49.9996 32.3325 50.6261 32.4568C51.2525 32.5812 51.8281 32.8886 52.2799 33.34C52.5829 33.6395 52.8234 33.9961 52.9875 34.3892C53.1517 34.7823 53.2362 35.204 53.2362 35.63C53.2362 36.056 53.1517 36.4777 52.9875 36.8708C52.8234 37.2639 52.5829 37.6205 52.2799 37.92V37.91ZM48.3799 29.62C47.3277 29.8971 46.3681 30.4494 45.5999 31.22C44.4317 32.3883 43.7755 33.9728 43.7755 35.625C43.7755 37.2772 44.4317 38.8617 45.5999 40.03C46.3681 40.8006 47.3277 41.3529 48.3799 41.63V51.5C48.3799 52.1566 48.2506 52.8068 47.9993 53.4134C47.748 54.02 47.3797 54.5712 46.9154 55.0355C46.4512 55.4998 45.9 55.8681 45.2933 56.1194C44.6867 56.3707 44.0365 56.5 43.3799 56.5H20.6199C19.2938 56.5 18.0221 55.9732 17.0844 55.0355C16.1467 54.0979 15.6199 52.8261 15.6199 51.5V13H48.3799V29.62Z" fill="url(#paint0_linear_183_3686)"/>
<path d="M22 18.8799C21.6022 18.8799 21.2206 19.0379 20.9393 19.3192C20.658 19.6005 20.5 19.9821 20.5 20.3799V50.2599C20.5 50.6577 20.658 51.0392 20.9393 51.3205C21.2206 51.6018 21.6022 51.7599 22 51.7599C22.3978 51.7599 22.7794 51.6018 23.0607 51.3205C23.342 51.0392 23.5 50.6577 23.5 50.2599V20.3799C23.5 19.9821 23.342 19.6005 23.0607 19.3192C22.7794 19.0379 22.3978 18.8799 22 18.8799Z" fill="url(#paint1_linear_183_3686)"/>
<path d="M32 18.8799C31.6022 18.8799 31.2206 19.0379 30.9393 19.3192C30.658 19.6005 30.5 19.9821 30.5 20.3799V50.2599C30.5 50.6577 30.658 51.0392 30.9393 51.3205C31.2206 51.6018 31.6022 51.7599 32 51.7599C32.3978 51.7599 32.7794 51.6018 33.0607 51.3205C33.342 51.0392 33.5 50.6577 33.5 50.2599V20.3799C33.5 19.9821 33.342 19.6005 33.0607 19.3192C32.7794 19.0379 32.3978 18.8799 32 18.8799V18.8799Z" fill="url(#paint2_linear_183_3686)"/>
<path d="M42 51.7599C42.3978 51.7599 42.7794 51.6018 43.0607 51.3205C43.342 51.0392 43.5 50.6577 43.5 50.2599V20.3799C43.5 19.9821 43.342 19.6005 43.0607 19.3192C42.7794 19.0379 42.3978 18.8799 42 18.8799C41.6022 18.8799 41.2206 19.0379 40.9393 19.3192C40.658 19.6005 40.5 19.9821 40.5 20.3799V50.2599C40.5 50.6577 40.658 51.0392 40.9393 51.3205C41.2206 51.6018 41.6022 51.7599 42 51.7599V51.7599Z" fill="url(#paint3_linear_183_3686)"/>
<defs>
<linearGradient id="paint0_linear_183_3686" x1="6.15991" y1="32" x2="57.8399" y2="32" gradientUnits="userSpaceOnUse">
<stop stop-color="#19DD33"/>
<stop offset="0.43" stop-color="#0FA922"/>
<stop offset="0.8" stop-color="#088215"/>
<stop offset="1" stop-color="#057310"/>
</linearGradient>
<linearGradient id="paint1_linear_183_3686" x1="82.12" y1="1180.2" x2="91.12" y2="1180.2" gradientUnits="userSpaceOnUse">
<stop stop-color="#19DD33"/>
<stop offset="0.43" stop-color="#0FA922"/>
<stop offset="0.8" stop-color="#088215"/>
<stop offset="1" stop-color="#057310"/>
</linearGradient>
<linearGradient id="paint2_linear_183_3686" x1="122" y1="1180.2" x2="131" y2="1180.2" gradientUnits="userSpaceOnUse">
<stop stop-color="#19DD33"/>
<stop offset="0.43" stop-color="#0FA922"/>
<stop offset="0.8" stop-color="#088215"/>
<stop offset="1" stop-color="#057310"/>
</linearGradient>
<linearGradient id="paint3_linear_183_3686" x1="161.88" y1="1180.2" x2="170.88" y2="1180.2" gradientUnits="userSpaceOnUse">
<stop stop-color="#19DD33"/>
<stop offset="0.43" stop-color="#0FA922"/>
<stop offset="0.8" stop-color="#088215"/>
<stop offset="1" stop-color="#057310"/>
</linearGradient>
</defs>
</svg>
