<?xml version="1.0" encoding="iso-8859-1"?>
<!-- Uploaded to: SVG Repo, www.svgrepo.com, Generator: SVG Repo Mixer Tools -->
<svg height="800px" width="800px" version="1.1" id="Layer_1" xmlns="http://www.w3.org/2000/svg" xmlns:xlink="http://www.w3.org/1999/xlink" 
	 viewBox="0 0 512 512" xml:space="preserve">
<path style="fill:#E3E8F4;" d="M285.036,15.221c-15.969-8.828-42.099-8.828-58.068,0L61.102,106.913
	c-15.969,8.829-29.035,30.98-29.035,49.226v200.28c0,18.246,13.066,40.398,29.035,49.226l165.865,91.692
	c15.969,8.828,42.099,8.828,58.068,0l165.865-91.692c15.969-8.828,29.034-30.98,29.034-49.226v-200.28
	c0-18.246-13.066-40.398-29.034-49.226L285.036,15.221z"/>
<path style="fill:#C7CFE2;" d="M256.001,503.956V275.973c0-18.11-9.839-34.79-25.687-43.551l-168.32-93.049
	c-12.999-7.186-29.817,1.636-29.925,16.487c0,0.093-0.001,0.186-0.001,0.278V356.42c0,18.246,13.066,40.397,29.034,49.225
	l165.865,91.692c7.987,4.415,18.515,6.622,29.044,6.621L256.001,503.956z"/>
<path style="fill:#D7DEED;" d="M256.001,503.956V275.973c0-18.11,9.839-34.79,25.687-43.551l168.319-93.049
	c12.999-7.186,29.817,1.636,29.925,16.487c0,0.093,0.001,0.186,0.001,0.278V356.42c0,18.246-13.066,40.397-29.034,49.225
	l-165.865,91.692c-7.987,4.415-18.515,6.622-29.044,6.621L256.001,503.956z"/>
<path style="fill:#EFF2FA;" d="M286.095,230.013l165.287-91.372c12.371-6.839,12.371-24.622,0-31.462L286.095,15.807
	c-18.727-10.353-41.462-10.353-60.189,0L60.62,107.179c-12.371,6.839-12.371,24.622,0,31.462l165.287,91.372
	C244.633,240.366,267.368,240.366,286.095,230.013z"/>
<path style="fill:#5B5D6E;" d="M168.744,332.983c0,19.233-11.693,28.074-26.118,19.746c-14.425-8.328-26.118-30.671-26.118-49.904
	s11.693-28.074,26.118-19.745S168.744,313.75,168.744,332.983z"/>
<path style="fill:#515262;" d="M142.625,283.079c-10.432-6.023-19.364-2.968-23.549,6.403c3.426-0.224,7.222,0.626,11.281,2.97
	c14.425,8.328,26.118,30.671,26.118,49.904c0,5.325-0.967,9.755-2.57,13.342c8.751-0.572,14.839-8.894,14.839-22.715
	C168.744,313.75,157.049,291.407,142.625,283.079z"/>
<path style="fill:#707487;" d="M289.176,426.567c0,19.233,11.693,28.074,26.118,19.745c14.425-8.328,26.118-30.671,26.118-49.904
	s-11.693-28.074-26.118-19.746C300.87,384.991,289.176,407.334,289.176,426.567z"/>
<path style="fill:#5B5D6E;" d="M315.295,376.662c-1.903,1.099-3.749,2.469-5.537,4.017c8.88,0.434,15.068,8.803,15.068,22.748
	c0,16.695-8.822,35.705-20.582,45.887c3.367,0.165,7.085-0.714,11.05-3.003c14.425-8.328,26.118-30.671,26.118-49.904
	C341.413,377.176,329.72,368.335,315.295,376.662z"/>
<path style="fill:#707487;" d="M396.996,242.83c0,19.233,11.693,28.074,26.118,19.745c14.425-8.328,26.118-30.671,26.118-49.904
	s-11.693-28.074-26.118-19.744C408.69,201.255,396.996,223.597,396.996,242.83z"/>
<path style="fill:#5B5D6E;" d="M423.115,192.925c-1.903,1.099-3.749,2.469-5.537,4.017c8.88,0.434,15.068,8.803,15.068,22.748
	c0,16.695-8.822,35.705-20.582,45.887c3.367,0.165,7.085-0.713,11.05-3.003c14.425-8.328,26.118-30.671,26.118-49.903
	C449.233,193.437,437.54,184.598,423.115,192.925z"/>
<path style="fill:#707487;" d="M344.759,334.062c0,19.233,11.693,28.074,26.118,19.745c14.425-8.328,26.118-30.671,26.118-49.904
	s-11.693-28.074-26.118-19.745C356.453,292.486,344.759,314.829,344.759,334.062z"/>
<path style="fill:#5B5D6E;" d="M370.877,284.157c-1.903,1.099-3.749,2.469-5.537,4.017c8.88,0.434,15.068,8.803,15.068,22.748
	c0,16.695-8.822,35.705-20.582,45.887c3.367,0.165,7.085-0.713,11.05-3.003c14.425-8.328,26.118-30.671,26.118-49.903
	C396.996,284.669,385.302,275.83,370.877,284.157z"/>
<ellipse style="fill:#707487;" cx="256" cy="120.572" rx="41.469" ry="20.735"/>
<path style="fill:#65687A;" d="M256.001,99.832c-19.61,0-35.944,6.826-40.263,15.972c7.604-4.649,19.022-7.678,31.97-7.678
	c22.902,0,41.469,9.284,41.469,20.735c0,1.647-0.48,3.228-1.206,4.764c5.847-3.574,9.5-8.079,9.5-13.058
	C297.47,109.116,278.904,99.832,256.001,99.832z"/>
<ellipse style="fill:#707487;" cx="256" cy="62.515" rx="41.469" ry="20.735"/>
<path style="fill:#65687A;" d="M256.001,41.775c-19.61,0-35.944,6.826-40.263,15.972c7.604-4.649,19.022-7.678,31.97-7.678
	c22.902,0,41.469,9.284,41.469,20.735c0,1.647-0.48,3.228-1.206,4.764c5.847-3.574,9.5-8.079,9.5-13.058
	C297.47,51.059,278.904,41.775,256.001,41.775z"/>
<ellipse style="fill:#707487;" cx="256" cy="178.618" rx="41.469" ry="20.735"/>
<path style="fill:#65687A;" d="M256.001,157.889c-19.61,0-35.944,6.826-40.263,15.972c7.604-4.649,19.022-7.678,31.97-7.678
	c22.902,0,41.469,9.284,41.469,20.735c0,1.647-0.48,3.228-1.206,4.764c5.847-3.574,9.5-8.079,9.5-13.058
	C297.47,167.173,278.904,157.889,256.001,157.889z"/>
<ellipse style="fill:#707487;" cx="363.82" cy="120.572" rx="41.469" ry="20.735"/>
<path style="fill:#65687A;" d="M363.821,99.832c-19.61,0-35.944,6.826-40.263,15.972c7.604-4.649,19.022-7.678,31.97-7.678
	c22.902,0,41.469,9.284,41.469,20.735c0,1.647-0.48,3.228-1.206,4.764c5.847-3.574,9.5-8.079,9.5-13.058
	C405.29,109.116,386.723,99.832,363.821,99.832z"/>
<ellipse style="fill:#707487;" cx="148.18" cy="120.572" rx="41.469" ry="20.735"/>
<path style="fill:#65687A;" d="M148.181,99.832c-19.61,0-35.944,6.826-40.263,15.972c7.604-4.649,19.022-7.678,31.97-7.678
	c22.902,0,41.469,9.284,41.469,20.735c0,1.647-0.48,3.228-1.206,4.764c5.847-3.574,9.5-8.079,9.5-13.058
	C189.65,109.116,171.084,99.832,148.181,99.832z"/>
<g>
	<path style="fill:#2D2B29;" d="M293.678,234.91c4.009-2.217,5.463-7.262,3.246-11.271c-2.215-4.009-7.261-5.461-11.271-3.246
		l-11.828,6.539c-4.009,2.217-5.463,7.262-3.246,11.271c1.513,2.737,4.345,4.283,7.266,4.283c1.357,0,2.734-0.334,4.005-1.037
		L293.678,234.91z"/>
	<path style="fill:#2D2B29;" d="M454.913,99.376L289.048,7.683c-18.532-10.245-47.563-10.244-66.094,0L57.088,99.376
		c-18.682,10.327-33.315,35.138-33.315,56.484v200.28c0,21.346,14.633,46.156,33.315,56.484l165.865,91.692
		c9.266,5.122,21.154,7.684,33.047,7.683c11.889,0,23.783-2.562,33.047-7.683l165.865-91.692
		c18.682-10.328,33.315-35.139,33.315-56.484V155.86C488.228,134.514,473.594,109.703,454.913,99.376z M471.641,356.14
		c0,15.331-11.336,34.55-24.753,41.968L281.023,489.8c-4.707,2.602-10.549,4.28-16.728,5.076V272.588
		c0-4.58-3.714-8.294-8.294-8.294s-8.294,3.714-8.294,8.294v222.288c-6.178-0.796-12.021-2.474-16.728-5.076L65.114,398.108
		c-13.417-7.418-24.753-26.637-24.753-41.968V155.86c0-5.445,1.435-11.379,3.88-17.102L230.003,241.45
		c1.272,0.703,2.648,1.037,4.005,1.037c2.92,0,5.753-1.547,7.266-4.283c2.217-4.009,0.763-9.055-3.246-11.271L52.83,124.553
		c3.645-4.463,7.849-8.208,12.283-10.66l165.865-91.692c6.781-3.749,15.901-5.623,25.021-5.623c9.12,0,18.24,1.874,25.021,5.623
		l165.865,91.692c4.415,2.44,8.602,6.165,12.238,10.603l-145.533,80.452c-4.009,2.217-5.463,7.262-3.246,11.271
		c1.513,2.737,4.345,4.283,7.266,4.283c1.357,0,2.734-0.334,4.005-1.037l146.115-80.774c2.462,5.743,3.909,11.702,3.909,17.168
		L471.641,356.14L471.641,356.14z"/>
	<path style="fill:#2D2B29;" d="M448.042,214.711c-4.48-0.95-8.884,1.913-9.833,6.394c-2.871,13.539-11.131,26.607-20.09,31.779
		c-1.969,1.137-5.661,2.822-8.24,1.333c-2.219-1.28-4.588-5.435-4.588-13.254c0-15.667,9.673-34.488,21.122-41.098
		c1.926-1.112,5.54-2.773,8.111-1.404c4.043,2.154,9.066,0.624,11.219-3.419c2.154-4.042,0.624-9.066-3.419-11.219
		c-7.144-3.808-15.74-3.212-24.207,1.677c-16.495,9.523-29.416,33.887-29.416,55.464c0,12.825,4.695,22.892,12.881,27.618
		c3.276,1.892,6.868,2.833,10.629,2.833c4.574,0,9.397-1.393,14.199-4.166c12.929-7.465,24.191-24.626,28.024-42.704
		C455.385,220.063,452.522,215.662,448.042,214.711z"/>
	<path style="fill:#2D2B29;" d="M340.222,398.372c-4.482-0.95-8.884,1.914-9.833,6.393c-2.871,13.539-11.131,26.607-20.09,31.779
		c-1.97,1.137-5.66,2.824-8.24,1.333c-2.219-1.28-4.588-5.435-4.588-13.253c0-15.667,9.673-34.488,21.122-41.098
		c1.926-1.112,5.54-2.774,8.112-1.404c4.042,2.153,9.067,0.622,11.219-3.42c2.154-4.042,0.623-9.066-3.42-11.219
		c-7.143-3.806-15.74-3.209-24.206,1.678c-16.495,9.523-29.416,33.887-29.416,55.464c0,12.825,4.695,22.892,12.881,27.618
		c3.276,1.892,6.868,2.833,10.629,2.833c4.574,0,9.397-1.393,14.199-4.167c12.929-7.464,24.191-24.625,28.024-42.704
		C347.565,403.724,344.703,399.321,340.222,398.372z"/>
	<path style="fill:#2D2B29;" d="M394.132,306.541c-4.483-0.952-8.884,1.913-9.833,6.393c-2.871,13.539-11.131,26.607-20.09,31.778
		c-1.97,1.137-5.661,2.824-8.24,1.333c-2.219-1.28-4.588-5.435-4.588-13.252c0-15.667,9.673-34.488,21.122-41.098
		c1.926-1.112,5.54-2.773,8.112-1.404c4.042,2.153,9.066,0.622,11.219-3.42c2.154-4.042,0.623-9.066-3.42-11.219
		c-7.143-3.805-15.74-3.21-24.206,1.678c-16.495,9.523-29.416,33.887-29.416,55.464c0,12.825,4.695,22.892,12.881,27.618
		c3.276,1.892,6.868,2.833,10.629,2.833c4.574,0,9.397-1.393,14.199-4.167c12.929-7.464,24.19-24.625,28.024-42.703
		C401.475,311.894,398.613,307.492,394.132,306.541z"/>
	<path style="fill:#2D2B29;" d="M166.961,314.217c-4.49,0.906-7.396,5.279-6.491,9.77c0.615,3.046,0.926,6.009,0.926,8.806
		c0,7.819-2.37,11.972-4.588,13.252c-2.581,1.491-6.271-0.195-8.241-1.333c-11.449-6.61-21.122-25.43-21.122-41.098
		c0-7.819,2.37-11.972,4.588-13.254c2.58-1.49,6.27,0.195,8.239,1.332c1.599,0.924,3.215,2.13,4.804,3.588
		c3.374,3.096,8.621,2.872,11.718-0.505c3.097-3.375,2.871-8.621-0.505-11.718c-2.479-2.275-5.077-4.202-7.723-5.73
		c-8.749-5.052-17.567-5.526-24.828-1.332c-8.186,4.726-12.881,14.793-12.881,27.618c0,21.577,12.921,45.941,29.416,55.463
		c4.802,2.773,9.624,4.167,14.199,4.167c3.759,0,7.354-0.942,10.629-2.833c8.186-4.726,12.881-14.793,12.881-27.618
		c0-3.895-0.422-7.961-1.252-12.085C175.826,316.219,171.457,313.315,166.961,314.217z"/>
	<path style="fill:#2D2B29;" d="M305.764,181.356c0-4.58-3.714-8.294-8.294-8.294c-4.476,0-8.123,3.546-8.289,7.981
		c-1.449,2.57-12.931,8.607-33.181,8.607c-19.468,0-30.831-5.58-32.968-8.294c2.138-2.714,13.5-8.294,32.968-8.294
		c5.287,0,10.387,0.423,15.157,1.255c4.514,0.789,8.81-2.23,9.597-6.742c0.789-4.512-2.23-8.809-6.742-9.597
		c-5.71-0.998-11.77-1.504-18.012-1.504c-23.967,0-49.763,7.786-49.763,24.882s25.796,24.881,49.763,24.881
		S305.764,198.451,305.764,181.356z"/>
	<path style="fill:#2D2B29;" d="M256.001,148.181c23.967,0,49.763-7.787,49.763-24.881c0-4.58-3.714-8.294-8.294-8.294
		c-4.476,0-8.123,3.546-8.289,7.981c-1.449,2.57-12.931,8.607-33.181,8.607c-19.468,0-30.831-5.58-32.968-8.294
		c2.138-2.714,13.5-8.294,32.968-8.294c5.287,0,10.387,0.423,15.157,1.255c4.514,0.79,8.81-2.23,9.597-6.742
		c0.789-4.512-2.23-8.809-6.742-9.597c-5.71-0.998-11.77-1.504-18.012-1.504c-23.967,0-49.763,7.786-49.763,24.882
		C206.238,140.394,232.034,148.181,256.001,148.181z"/>
	<path style="fill:#2D2B29;" d="M363.821,148.181c23.967,0,49.763-7.787,49.763-24.881c0-4.58-3.714-8.294-8.294-8.294
		c-4.476,0-8.123,3.546-8.289,7.981c-1.449,2.57-12.931,8.607-33.181,8.607c-19.468,0-30.831-5.58-32.968-8.294
		c2.138-2.714,13.5-8.294,32.968-8.294c5.287,0,10.387,0.423,15.157,1.255c4.514,0.79,8.809-2.23,9.597-6.742
		c0.789-4.512-2.23-8.809-6.742-9.597c-5.71-0.998-11.77-1.504-18.012-1.504c-23.967,0-49.763,7.786-49.763,24.882
		C314.058,140.394,339.854,148.181,363.821,148.181z"/>
	<path style="fill:#2D2B29;" d="M189.65,115.006c-4.476,0-8.123,3.546-8.289,7.981c-1.449,2.57-12.931,8.607-33.181,8.607
		c-19.468,0-30.831-5.58-32.968-8.294c2.138-2.714,13.5-8.294,32.968-8.294c5.287,0,10.387,0.423,15.157,1.255
		c4.511,0.79,8.809-2.23,9.597-6.742c0.789-4.512-2.23-8.809-6.742-9.597c-5.71-0.998-11.77-1.504-18.012-1.504
		c-23.967,0-49.763,7.786-49.763,24.882c0,17.095,25.796,24.881,49.763,24.881s49.763-7.787,49.763-24.881
		C197.944,118.718,194.231,115.006,189.65,115.006z"/>
	<path style="fill:#2D2B29;" d="M256.001,90.124c23.967,0,49.763-7.787,49.763-24.881c0-4.58-3.714-8.294-8.294-8.294
		c-4.476,0-8.123,3.546-8.289,7.981c-1.449,2.57-12.931,8.607-33.181,8.607c-19.468,0-30.831-5.58-32.968-8.294
		c2.138-2.714,13.5-8.294,32.968-8.294c5.287,0,10.387,0.423,15.157,1.255c4.514,0.79,8.81-2.23,9.597-6.742
		c0.789-4.512-2.23-8.809-6.742-9.597c-5.71-0.998-11.77-1.504-18.012-1.504c-23.967,0-49.763,7.786-49.763,24.881
		C206.238,82.337,232.034,90.124,256.001,90.124z"/>
</g>
</svg>