<svg width="64" height="64" viewBox="0 0 64 64" fill="none" xmlns="http://www.w3.org/2000/svg">
<path d="M52 25.46C51.7996 25.4599 51.6012 25.5 51.4166 25.5779C51.2319 25.6558 51.0648 25.7698 50.9249 25.9134C50.7851 26.0569 50.6755 26.2271 50.6025 26.4137C50.5295 26.6003 50.4947 26.7997 50.5 27V50C50.5 50.1326 50.4473 50.2598 50.3536 50.3536C50.2598 50.4473 50.1326 50.5 50 50.5H14C13.8674 50.5 13.7402 50.4473 13.6464 50.3536C13.5527 50.2598 13.5 50.1326 13.5 50V14C13.5 13.8674 13.5527 13.7402 13.6464 13.6464C13.7402 13.5527 13.8674 13.5 14 13.5H37C37.3978 13.5 37.7794 13.342 38.0607 13.0607C38.342 12.7794 38.5 12.3978 38.5 12C38.5 11.6022 38.342 11.2206 38.0607 10.9393C37.7794 10.658 37.3978 10.5 37 10.5H14C13.0717 10.5 12.1815 10.8687 11.5251 11.5251C10.8687 12.1815 10.5 13.0717 10.5 14V50C10.5 50.9283 10.8687 51.8185 11.5251 52.4749C12.1815 53.1312 13.0717 53.5 14 53.5H50C50.9283 53.5 51.8185 53.1312 52.4749 52.4749C53.1312 51.8185 53.5 50.9283 53.5 50V27C53.5053 26.7997 53.4705 26.6003 53.3975 26.4137C53.3245 26.2271 53.2149 26.0569 53.0751 25.9134C52.9352 25.7698 52.7681 25.6558 52.5834 25.5779C52.3988 25.5 52.2004 25.4599 52 25.46V25.46Z" fill="url(#paint0_linear_121:1966)" id="id_101"></path>
<path d="M30.1601 26.0501L26.7301 35.3501C26.63 35.6185 26.6088 35.9098 26.6691 36.1898C26.7293 36.4698 26.8685 36.7267 27.0701 36.9301C27.2748 37.1296 27.5316 37.2674 27.8111 37.3275C28.0906 37.3876 28.3814 37.3678 28.6501 37.2701L38.0001 33.8401C38.2016 33.7607 38.3853 33.6417 38.5401 33.4901L52.0001 19.9401C52.6553 19.3308 53.0423 18.4865 53.076 17.5923C53.1098 16.6982 52.7876 15.8271 52.1801 15.1701L48.7901 11.7801C48.1307 11.1775 47.2607 10.8586 46.3682 10.8923C45.4756 10.926 44.6321 11.3096 44.0201 11.9601L30.5101 25.5101C30.3574 25.664 30.2382 25.8479 30.1601 26.0501V26.0501ZM32.8601 27.4001L46.1801 14.0801C46.2857 13.9629 46.4327 13.8912 46.5901 13.8801C46.6501 13.8801 46.7001 13.8801 46.7101 13.8801L50.1001 17.2701C50.1001 17.2701 50.1001 17.5701 49.9201 17.8001L36.6001 31.1401L30.6701 33.3301L32.8601 27.4001Z" fill="url(#paint1_linear_121:1966)" id="id_102"></path>
<defs>
<linearGradient id="paint0_linear_121:1966" x1="10.5" y1="32" x2="53.5" y2="32" gradientUnits="userSpaceOnUse">
<stop stop-color="#f5ffed" id="id_103"></stop>
<stop offset="0.43" stop-color="#e8ffe0" id="id_104"></stop>
<stop offset="0.8" stop-color="#e0ffe7" id="id_105"></stop>
<stop offset="1" stop-color="#defcd3" id="id_106"></stop>
</linearGradient>
<linearGradient id="paint1_linear_121:1966" x1="730.811" y1="649.386" x2="1431.28" y2="649.386" gradientUnits="userSpaceOnUse">
<stop stop-color="#effae6" id="id_107"></stop>
<stop offset="0.43" stop-color="#dbfce4" id="id_108"></stop>
<stop offset="0.8" stop-color="#d0fadb" id="id_109"></stop>
<stop offset="1" stop-color="#c9f7de" id="id_110"></stop>
</linearGradient>
</defs>
</svg>