<!DOCTYPE svg PUBLIC "-//W3C//DTD SVG 1.1//EN" "http://www.w3.org/Graphics/SVG/1.1/DTD/svg11.dtd">
<!-- Uploaded to: SVG Repo, www.svgrepo.com, Transformed by: SVG Repo Mixer Tools -->
<svg height="800px" width="800px" version="1.1" id="Layer_1" xmlns="http://www.w3.org/2000/svg" xmlns:xlink="http://www.w3.org/1999/xlink" viewBox="0 0 512.001 512.001" xml:space="preserve" fill="#f9f1f1" stroke="#f9f1f1" stroke-width="0.0051200099999999995">
<g id="SVGRepo_bgCarrier" stroke-width="0"/>
<g id="SVGRepo_tracerCarrier" stroke-linecap="round" stroke-linejoin="round" stroke="#fdf749" stroke-width="18.432036"> <path style="fill:#f3f702;" d="M388.128,417.622c-21.442-20.949-48.031-35.92-76.893-43.294c-7.181-1.835-12.445-7.97-13.167-15.347 c-0.248-2.526-0.372-5.077-0.372-7.581c0-42.49,34.568-77.059,77.059-77.059c81.778,0,106.776,111.333,33.292,146.565 C401.38,424.102,393.422,422.794,388.128,417.622z"/> <path style="fill:#c48d40;" d="M153.221,377.275l21.513-240.354c0.812-9.08,8.423-16.04,17.54-16.04h11.634 c9.118,0,16.726,6.959,17.539,16.041l19.536,218.396c0.774,8.658-4.885,16.587-13.325,18.666 c-16.845,4.152-32.9,10.844-47.722,19.891C167.682,401.353,151.928,391.715,153.221,377.275z"/> <path style="fill:#c48d40;" d="M240.98,355.319l-19.536-218.396c-0.812-9.08-8.422-16.041-17.54-16.041h-5.82v263.389 c9.505-4.324,19.39-7.776,29.571-10.286C236.095,371.906,241.755,363.977,240.98,355.319z"/> <path style="fill:#14e121;" d="M395.754,134.832C373.13,28.126,243.239,15.158,198.085,102.518 C152.954,15.201,23.062,28.022,0.416,134.832c-3.667,17.299,17.772,28.61,29.978,15.797c18.335-19.252,45.509-30.294,74.555-30.294 c0.187,0,0.371,0.012,0.558,0.013C44.552,148.23,20.834,229.21,75.389,290.668c11.703,13.183,33.591,2.788,30.512-14.738 c-8.427-47.97,23.161-108.078,89.404-120.115c0.954-0.167,1.881-0.409,2.774-0.722c1.172,0.413,2.535,0.725,3.625,0.863 c55.398,6.966,98.203,65.091,88.562,119.974c-3.084,17.555,18.858,27.866,30.512,14.737c54.917-61.863,30.268-142.698-30.116-170.32 c0.185-0.001,0.37-0.013,0.555-0.013c29.047-0.001,56.223,11.041,74.557,30.294C377.922,163.383,399.447,152.254,395.754,134.832z"/> <path style="fill:#14e121;" d="M395.754,134.832C373.131,28.13,243.24,15.154,198.085,102.518v52.576 c1.172,0.412,2.525,0.723,3.62,0.862c55.398,6.966,98.203,65.091,88.562,119.974c-3.084,17.555,18.857,27.866,30.512,14.737 c54.862-61.801,30.343-142.664-30.118-170.32c0.185-0.001,0.37-0.013,0.555-0.013c29.047-0.001,56.223,11.041,74.557,30.294 C377.922,163.383,399.447,152.254,395.754,134.832z"/> <path style="fill:#eec291;" d="M434.203,467.106H103.309c-13.352,0-21.866-14.335-15.446-26.065 c78.019-142.526,283.488-143.012,361.787-0.001C456.061,452.752,447.575,467.106,434.203,467.106z"/> <path style="fill:#eec291;" d="M449.649,441.041c-49.06-89.608-155.975-129.659-251.564-94.802v120.867h236.118 C447.556,467.106,456.069,452.77,449.649,441.041z"/> <path style="fill:#48AEE2;" d="M494.392,467.106H43.122c-9.725,0-17.609-7.884-17.609-17.609c0-9.725,7.884-17.609,17.609-17.609 h451.269c9.725,0,17.609,7.884,17.609,17.609C512.001,459.222,504.117,467.106,494.392,467.106z"/> <path style="fill:#48AEE2;" d="M494.392,431.887H198.085v35.218H494.39c9.725,0,17.609-7.884,17.609-17.609 C512,439.772,504.117,431.887,494.392,431.887z"/> </g>
<g id="SVGRepo_iconCarrier"> <path style="fill:#f3f702;" d="M388.128,417.622c-21.442-20.949-48.031-35.92-76.893-43.294c-7.181-1.835-12.445-7.97-13.167-15.347 c-0.248-2.526-0.372-5.077-0.372-7.581c0-42.49,34.568-77.059,77.059-77.059c81.778,0,106.776,111.333,33.292,146.565 C401.38,424.102,393.422,422.794,388.128,417.622z"/> <path style="fill:#c48d40;" d="M153.221,377.275l21.513-240.354c0.812-9.08,8.423-16.04,17.54-16.04h11.634 c9.118,0,16.726,6.959,17.539,16.041l19.536,218.396c0.774,8.658-4.885,16.587-13.325,18.666 c-16.845,4.152-32.9,10.844-47.722,19.891C167.682,401.353,151.928,391.715,153.221,377.275z"/> <path style="fill:#c48d40;" d="M240.98,355.319l-19.536-218.396c-0.812-9.08-8.422-16.041-17.54-16.041h-5.82v263.389 c9.505-4.324,19.39-7.776,29.571-10.286C236.095,371.906,241.755,363.977,240.98,355.319z"/> <path style="fill:#14e121;" d="M395.754,134.832C373.13,28.126,243.239,15.158,198.085,102.518 C152.954,15.201,23.062,28.022,0.416,134.832c-3.667,17.299,17.772,28.61,29.978,15.797c18.335-19.252,45.509-30.294,74.555-30.294 c0.187,0,0.371,0.012,0.558,0.013C44.552,148.23,20.834,229.21,75.389,290.668c11.703,13.183,33.591,2.788,30.512-14.738 c-8.427-47.97,23.161-108.078,89.404-120.115c0.954-0.167,1.881-0.409,2.774-0.722c1.172,0.413,2.535,0.725,3.625,0.863 c55.398,6.966,98.203,65.091,88.562,119.974c-3.084,17.555,18.858,27.866,30.512,14.737c54.917-61.863,30.268-142.698-30.116-170.32 c0.185-0.001,0.37-0.013,0.555-0.013c29.047-0.001,56.223,11.041,74.557,30.294C377.922,163.383,399.447,152.254,395.754,134.832z"/> <path style="fill:#14e121;" d="M395.754,134.832C373.131,28.13,243.24,15.154,198.085,102.518v52.576 c1.172,0.412,2.525,0.723,3.62,0.862c55.398,6.966,98.203,65.091,88.562,119.974c-3.084,17.555,18.857,27.866,30.512,14.737 c54.862-61.801,30.343-142.664-30.118-170.32c0.185-0.001,0.37-0.013,0.555-0.013c29.047-0.001,56.223,11.041,74.557,30.294 C377.922,163.383,399.447,152.254,395.754,134.832z"/> <path style="fill:#eec291;" d="M434.203,467.106H103.309c-13.352,0-21.866-14.335-15.446-26.065 c78.019-142.526,283.488-143.012,361.787-0.001C456.061,452.752,447.575,467.106,434.203,467.106z"/> <path style="fill:#eec291;" d="M449.649,441.041c-49.06-89.608-155.975-129.659-251.564-94.802v120.867h236.118 C447.556,467.106,456.069,452.77,449.649,441.041z"/> <path style="fill:#48AEE2;" d="M494.392,467.106H43.122c-9.725,0-17.609-7.884-17.609-17.609c0-9.725,7.884-17.609,17.609-17.609 h451.269c9.725,0,17.609,7.884,17.609,17.609C512.001,459.222,504.117,467.106,494.392,467.106z"/> <path style="fill:#48AEE2;" d="M494.392,431.887H198.085v35.218H494.39c9.725,0,17.609-7.884,17.609-17.609 C512,439.772,504.117,431.887,494.392,431.887z"/> </g>
</svg>