<?xml version="1.0" encoding="iso-8859-1"?>
<!-- Uploaded to: SVG Repo, www.svgrepo.com, Generator: SVG Repo Mixer Tools -->
<svg height="800px" width="800px" version="1.1" id="Layer_1" xmlns="http://www.w3.org/2000/svg" xmlns:xlink="http://www.w3.org/1999/xlink" 
	 viewBox="0 0 512 512" xml:space="preserve">
<path style="fill:#E1E1E3;" d="M423.384,0H88.616c-9.213,0-16.683,7.469-16.683,16.683v215.63c0,9.213,7.469,16.683,16.683,16.683
	h334.769c9.213,0,16.683-7.469,16.683-16.683V16.683C440.067,7.469,432.598,0,423.384,0z"/>
<path style="fill:#ACACB2;" d="M423.384,0H256v248.996h167.384c9.213,0,16.683-7.469,16.683-16.683V16.683
	C440.067,7.469,432.598,0,423.384,0z"/>
<path style="fill:#E61F00;" d="M399.511,232.195H112.489c-11.196,0-20.306-9.109-20.306-20.306V37.108
	c0-11.197,9.109-20.306,20.306-20.306h287.023c11.196,0,20.306,9.109,20.306,20.306v174.781
	C419.818,223.085,410.708,232.195,399.511,232.195z M114.426,209.952h283.148V39.044H114.426
	C114.426,39.044,114.426,209.952,114.426,209.952z"/>
<path style="fill:#9D2217;" d="M399.511,16.8H255.388v22.243h142.186V209.95H255.388v22.243h144.123
	c11.196,0,20.306-9.109,20.306-20.306V37.108C419.818,25.91,410.708,16.8,399.511,16.8z"/>
<path style="fill:#7E4F1F;" d="M256.659,508.663c-9.213,0-16.683-7.469-16.683-16.683V218.98c0-9.213,7.469-16.683,16.683-16.683
	c9.213,0,16.683,7.469,16.683,16.683v273.001C273.342,501.194,265.873,508.663,256.659,508.663z"/>
<g>
	<path style="fill:#5E3C16;" d="M256.659,202.298v306.366c9.213,0,16.683-7.469,16.683-16.683V218.98
		C273.342,209.767,265.873,202.298,256.659,202.298z"/>
	<path style="fill:#5E3C16;" d="M285.703,512h-58.088c-9.213,0-16.683-7.469-16.683-16.683c0-9.213,7.469-16.683,16.683-16.683
		h58.088c9.213,0,16.683,7.469,16.683,16.683C302.385,504.531,294.917,512,285.703,512z"/>
</g>
<path style="fill:#474747;" d="M280.968,196.745h-49.937c-9.213,0-16.683,7.469-16.683,16.683s7.469,16.683,16.683,16.683h49.935
	c9.213,0,16.683-7.469,16.683-16.683S290.182,196.745,280.968,196.745z"/>
<path style="fill:#999898;" d="M242.77,248.772l-16.873-92.641c-1.65-9.064-10.34-15.073-19.402-13.424
	c-9.064,1.65-15.074,10.338-13.424,19.402l16.873,92.642c1.467,8.054,8.488,13.695,16.393,13.695c0.992,0,1.997-0.089,3.008-0.272
	C238.411,266.523,244.421,257.836,242.77,248.772z"/>
<path style="fill:#686868;" d="M306.825,142.707c-9.068-1.652-17.751,4.359-19.402,13.424l-16.873,92.641
	c-1.65,9.064,4.359,17.75,13.423,19.402c1.011,0.185,2.016,0.272,3.008,0.272c7.905,0,14.926-5.642,16.393-13.696l16.873-92.641
	C321.898,153.045,315.889,144.358,306.825,142.707z"/>
<path style="fill:#2D2E30;" d="M314.96,142.437h-116.6c-9.213,0-16.683,7.469-16.683,16.683c0,9.213,7.469,16.683,16.683,16.683
	h116.6c9.213,0,16.683-7.469,16.683-16.683C331.642,149.906,324.173,142.437,314.96,142.437z"/>
</svg>